<svg xmlns="http://www.w3.org/2000/svg" xmlns:v="https://svgstorm.com"
viewBox = "0 0 256 256"
width="256"
height="256">
<g fill="None" fill-opacity="0.0" stroke="#000000" stroke-opacity="0.01" stroke-width="0.3"><path d="
M 0.00 47.00 
C 2.79 40.98 8.34 33.39 17.00 34.00
C 16.46 30.63 18.14 28.00 17.00 25.00
C 24.11 17.58 35.63 13.49 44.25 20.75 C 52.86 28.02 50.41 34.76 47.00 44.00
C 50.45 46.05 52.58 50.00 56.00 52.00
C 56.91 52.59 59.34 54.06 61.00 56.00
C 62.63 57.90 64.19 60.97 67.00 61.00
C 67.26 56.94 72.96 55.76 74.00 51.00
C 75.43 48.95 77.11 47.49 79.00 46.00
C 110.41 21.20 147.43 25.30 177.00 46.00
C 179.67 47.87 182.17 50.39 184.00 53.00
C 186.12 56.02 188.49 58.61 190.00 62.00
C 192.62 60.11 195.24 57.65 197.00 55.00
C 198.99 52.67 201.84 50.75 203.00 50.00
C 205.25 48.00 207.65 45.79 210.00 44.00
C 207.31 41.59 207.92 37.43 206.00 35.00
C 205.96 34.88 205.42 33.26 206.00 31.00
C 209.36 13.33 240.32 12.89 239.00 34.00
C 246.18 35.07 252.46 39.36 256.00 44.00
L 256.00 0.00
L 0.00 0.00
L 0.00 47.00 Z"/>
</g>
<g fill="None" fill-opacity="0.0" stroke="#000000" stroke-opacity="0.96" stroke-width="0.3"><path d="
M 0.00 47.00 
L 0.00 57.00
C 3.61 56.91 5.80 65.31 10.30 66.71 C 14.81 68.11 24.67 67.65 27.00 63.00
C 28.88 63.24 28.46 65.55 30.00 66.00
C 32.38 67.66 33.97 68.97 36.00 71.00
C 38.29 73.29 40.87 75.89 43.00 78.00
C 44.47 79.45 46.50 81.77 48.00 83.00
C 49.34 83.94 59.31 90.01 56.00 92.00
C 54.54 92.88 49.76 92.00 48.00 92.00
C 43.03 92.00 37.97 92.27 33.00 92.00
C 26.46 91.65 23.01 92.64 20.00 97.00
C 18.91 100.54 22.78 100.80 21.00 104.00
C 29.49 109.73 44.33 105.87 56.00 107.00
C 58.34 114.56 57.78 122.34 63.00 128.00
C 63.87 129.66 64.12 131.34 65.00 133.00
C 70.42 140.29 71.58 145.69 80.75 152.25 C 89.92 158.80 76.41 168.43 70.75 173.75 C 65.09 179.07 55.93 184.21 51.00 192.00
C 44.86 187.15 36.54 184.97 29.00 191.00
C 27.86 191.89 26.00 193.97 25.00 195.00
C 19.88 200.29 22.39 207.86 24.00 215.00
C 29.75 216.66 31.75 222.71 39.00 221.00
C 36.02 230.99 47.11 240.71 58.67 238.33 C 70.23 235.95 76.18 223.06 70.00 215.00
C 69.26 211.16 69.42 211.79 72.00 209.00
C 75.19 205.55 79.84 202.87 83.00 200.00
C 80.81 219.70 103.95 236.82 123.00 237.00
C 126.28 237.18 129.72 237.14 133.00 237.00
C 143.29 235.33 148.41 233.58 157.00 231.00
C 165.56 220.61 172.89 213.90 173.00 204.00
C 173.38 203.18 172.69 201.86 173.00 201.00
C 174.96 201.11 176.76 202.79 178.00 204.00
C 180.75 206.19 183.20 208.99 186.00 211.00
C 183.52 218.08 181.34 226.29 185.80 232.25 C 190.26 238.21 199.64 240.81 207.08 237.08 C 214.52 233.35 217.93 227.97 217.00 221.00
C 222.97 222.62 229.84 216.83 232.06 209.92 C 234.28 203.00 233.77 196.78 229.20 192.75 C 224.63 188.72 213.10 185.85 208.30 190.30 C 203.49 194.75 193.21 180.73 191.00 178.00
C 189.84 176.88 187.40 175.40 186.00 174.00
C 183.39 171.39 180.44 168.42 178.00 166.00
C 176.31 164.32 174.52 162.81 173.00 161.00
C 172.15 159.98 170.37 159.56 170.00 158.00
C 173.02 158.61 172.57 154.51 175.00 154.00
C 177.22 151.51 179.62 149.22 182.00 147.00
C 188.83 140.62 190.63 133.81 195.13 128.08 C 199.63 122.35 196.67 113.14 201.00 108.00
C 205.86 102.22 223.95 107.49 232.00 106.00
C 234.90 105.03 236.35 104.22 237.00 101.00
C 237.23 99.86 237.10 98.16 237.00 97.00
C 236.82 94.85 234.78 91.71 232.00 91.00
C 226.67 90.13 218.33 93.15 212.00 92.00 C 205.67 90.85 197.59 93.34 205.00 86.00
C 207.17 83.85 209.21 82.21 211.00 81.00
C 212.62 79.32 214.09 77.55 216.00 76.00
C 220.37 70.94 224.63 68.51 229.00 64.00
C 236.42 72.88 248.74 66.52 256.00 58.00
L 256.00 44.00
C 252.46 39.36 246.18 35.07 239.00 34.00
C 240.32 12.89 209.36 13.33 206.00 31.00
C 205.80 32.08 205.83 33.92 206.00 35.00
C 207.92 37.43 207.31 41.59 210.00 44.00
C 207.65 45.79 205.25 48.00 203.00 50.00
C 201.16 51.63 198.87 53.27 197.00 55.00
C 195.24 57.65 192.62 60.11 190.00 62.00
C 188.49 58.61 186.12 56.02 184.00 53.00
C 182.33 50.96 178.98 47.63 177.00 46.00
C 147.43 25.30 110.41 21.20 79.00 46.00
C 77.58 47.32 75.16 49.58 74.00 51.00
C 72.96 55.76 67.26 56.94 67.00 61.00
C 64.19 60.97 62.63 57.90 61.00 56.00
C 59.34 54.55 57.55 53.38 56.00 52.00
C 52.58 50.00 50.45 46.05 47.00 44.00
C 50.41 34.76 52.86 28.02 44.25 20.75 C 35.63 13.49 24.11 17.58 17.00 25.00
C 18.14 28.00 16.46 30.63 17.00 34.00
C 8.34 33.39 2.79 40.98 0.00 47.00
M 42.00 45.00 
C 50.20 49.61 55.84 59.04 64.00 64.00
C 61.67 70.97 57.65 77.46 57.00 85.00
C 46.84 76.76 37.12 67.29 28.00 58.00
C 21.38 65.84 8.94 64.70 5.03 54.97 C 1.11 45.25 10.72 34.19 21.00 38.00
C 17.47 27.87 26.37 17.26 37.22 20.78 C 48.08 24.30 47.63 37.19 42.00 45.00
M 235.00 38.00 
C 245.22 35.36 254.98 46.02 251.67 55.67 C 248.36 65.32 234.38 66.94 229.00 59.00
C 219.02 66.42 210.63 76.13 201.00 84.00
C 197.90 79.35 197.71 72.51 194.23 67.77 C 190.75 63.03 200.18 58.68 202.25 55.25 C 204.32 51.81 215.18 48.12 213.64 43.30 C 212.10 38.48 207.52 31.47 212.26 26.26 C 216.99 21.04 222.99 19.03 229.07 21.93 C 235.16 24.82 237.28 32.52 235.00 38.00
M 190.00 70.00 
C 149.00 70.00 108.00 70.00 67.00 70.00
C 88.14 19.20 168.70 19.89 190.00 70.00
M 197.00 90.00 
C 151.83 92.33 105.58 90.33 60.00 91.00
C 60.72 85.16 62.88 79.75 64.00 74.00
C 73.87 73.88 83.06 74.16 93.00 74.00 C 102.94 73.84 112.94 74.30 123.00 74.00 C 133.06 73.70 142.78 74.64 153.00 74.00 C 163.22 73.36 172.48 75.40 183.00 74.00 C 193.52 72.60 196.02 80.69 197.00 90.00
M 232.00 95.00 
C 238.70 99.74 227.41 105.02 222.00 103.00 C 216.59 100.98 207.17 103.95 201.00 103.00 C 194.83 102.05 187.55 103.40 181.00 103.00 C 174.45 102.60 166.71 103.18 160.00 103.00 C 153.29 102.82 146.79 103.05 140.00 103.00 C 133.21 102.95 125.84 102.97 119.00 103.00 C 112.16 103.03 104.77 102.86 98.00 103.00 C 91.23 103.14 84.64 102.64 78.00 103.00 C 71.36 103.36 63.39 102.23 57.00 103.00 C 50.61 103.77 42.78 101.20 37.00 103.00 C 31.22 104.80 21.26 100.54 26.77 95.77 C 32.28 91.00 39.57 96.54 46.00 95.00 C 52.43 93.46 60.30 95.70 67.00 95.00 C 73.70 94.30 81.23 95.32 88.00 95.00 C 94.77 94.68 101.20 95.11 108.00 95.00 C 114.80 94.89 122.21 95.01 129.00 95.00 C 135.79 94.99 142.25 94.89 149.00 95.00 C 155.75 95.11 163.35 94.71 170.00 95.00 C 176.65 95.29 183.61 94.30 190.00 95.00 C 196.39 95.70 205.11 93.51 211.00 95.00 C 216.89 96.49 227.36 91.72 232.00 95.00
M 197.00 107.00 
C 192.00 141.23 162.95 164.56 129.00 165.00 C 95.05 165.44 63.95 142.06 61.00 107.00
C 106.33 107.00 151.67 107.00 197.00 107.00
M 107.00 167.00 
C 105.62 170.79 104.87 174.80 105.00 179.00
C 99.07 176.37 88.26 176.68 89.78 167.78 C 91.30 158.88 100.80 164.69 107.00 167.00
M 163.00 162.00 
C 164.90 165.82 166.53 169.73 167.00 174.00
C 161.26 175.71 156.20 179.60 150.00 180.00
C 150.29 175.42 148.32 171.45 148.00 167.00
C 153.20 165.98 158.01 163.81 163.00 162.00
M 87.00 163.00 
C 81.48 171.16 83.73 184.07 82.00 193.00 C 80.27 201.93 68.45 204.19 64.00 211.00
C 69.85 218.52 69.52 230.58 59.30 234.30 C 49.09 238.03 38.63 227.07 43.00 217.00
C 32.03 220.55 22.70 208.17 26.93 198.93 C 31.16 189.68 43.73 188.77 49.00 197.00
C 62.31 187.04 73.96 173.68 87.00 163.00
M 206.00 197.00 
C 211.71 188.90 225.39 190.70 228.92 200.08 C 232.45 209.47 223.26 219.89 213.00 218.00
C 215.24 226.20 209.12 233.57 201.99 234.99 C 194.87 236.41 185.34 229.37 187.01 221.99 C 188.68 214.61 192.53 208.88 183.75 204.25 C 174.98 199.62 174.33 194.48 174.00 186.00 C 173.67 177.52 170.29 170.85 168.00 163.00
C 181.42 172.78 192.48 187.09 206.00 197.00
M 127.00 170.00 
C 127.00 174.33 127.00 178.67 127.00 183.00
C 120.25 183.90 114.35 181.74 108.00 181.00
C 108.22 176.56 109.49 172.40 110.00 168.00
C 115.69 168.56 121.39 169.04 127.00 170.00
M 145.00 168.00 
C 145.39 172.39 145.62 176.87 147.00 181.00
C 141.73 183.12 135.86 183.14 130.00 183.00
C 130.00 178.67 130.00 174.33 130.00 170.00
C 134.86 168.84 140.11 169.16 145.00 168.00
M 104.00 183.00 
C 102.81 186.85 102.92 191.05 102.00 195.00
C 93.40 191.87 82.04 187.19 87.00 176.00
C 92.87 177.35 97.89 181.83 104.00 183.00
M 168.00 177.00 
C 175.19 188.33 161.78 193.47 153.00 196.00
C 145.49 183.18 159.09 181.10 168.00 177.00
M 127.00 187.00 
C 126.52 191.63 128.08 196.80 126.00 201.00
C 119.40 199.40 112.47 199.19 106.00 197.00
C 106.01 192.51 106.65 188.15 108.00 184.00
C 114.02 186.12 120.38 187.12 127.00 187.00
M 149.00 198.00 
C 142.66 198.54 136.71 200.83 130.00 200.00
C 130.00 195.67 130.00 191.33 130.00 187.00
C 135.27 187.75 139.94 184.93 145.02 185.02 C 150.11 185.12 147.39 194.78 149.00 198.00
M 171.00 193.00 
C 172.08 218.40 150.76 234.41 127.00 234.00 C 103.24 233.59 83.55 215.77 85.00 191.00
C 109.98 208.25 144.84 207.57 171.00 193.00 Z"/>
</g>
<g fill="None" fill-opacity="0.0" stroke="#F7FDFC" stroke-opacity="1.00" stroke-width="0.3"><path d="
M 42.00 45.00 
C 47.63 37.19 48.08 24.30 37.22 20.78 C 26.37 17.26 17.47 27.87 21.00 38.00
C 10.72 34.19 1.11 45.25 5.03 54.97 C 8.94 64.70 21.38 65.84 28.00 58.00
C 37.12 67.29 46.84 76.76 57.00 85.00
C 57.65 77.46 61.67 70.97 64.00 64.00
C 55.84 59.04 50.20 49.61 42.00 45.00 Z"/>
</g>
<g fill="None" fill-opacity="0.0" stroke="#F7FDFC" stroke-opacity="1.00" stroke-width="0.3"><path d="
M 235.00 38.00 
C 237.28 32.52 235.16 24.82 229.07 21.93 C 222.99 19.03 216.99 21.04 212.26 26.26 C 207.52 31.47 212.10 38.48 213.64 43.30 C 215.18 48.12 204.32 51.81 202.25 55.25 C 200.18 58.68 190.75 63.03 194.23 67.77 C 197.71 72.51 197.90 79.35 201.00 84.00
C 210.63 76.13 219.02 66.42 229.00 59.00
C 234.38 66.94 248.36 65.32 251.67 55.67 C 254.98 46.02 245.22 35.36 235.00 38.00 Z"/>
</g>
<g fill="None" fill-opacity="0.0" stroke="#F7FDFC" stroke-opacity="0.05" stroke-width="0.3"><path d="
M 206.00 35.00 
C 205.83 33.92 205.80 32.08 206.00 31.00
C 205.42 33.26 205.96 34.88 206.00 35.00 Z"/>
</g>
<g fill="None" fill-opacity="0.0" stroke="#F4CB19" stroke-opacity="1.00" stroke-width="0.3"><path d="
M 190.00 70.00 
C 168.70 19.89 88.14 19.20 67.00 70.00
C 108.00 70.00 149.00 70.00 190.00 70.00
M 95.00 50.00 
C 93.15 56.11 87.56 61.46 83.00 66.00
C 81.13 59.75 89.07 51.58 95.00 50.00
M 167.00 52.00 
C 170.68 51.57 178.77 67.60 173.91 68.92 C 169.06 70.23 171.96 60.65 169.08 59.92 C 166.20 59.20 163.24 52.43 167.00 52.00
M 103.00 55.00 
C 102.34 59.91 97.71 63.33 96.00 68.00
C 89.84 66.25 98.02 54.10 103.00 55.00
M 157.00 57.00 
C 159.51 58.82 161.81 68.73 158.30 67.64 C 154.79 66.56 152.75 56.60 157.00 57.00
M 111.00 58.00 
C 111.92 61.35 108.92 63.21 108.00 66.00
C 102.25 65.82 107.45 57.12 111.00 58.00 Z"/>
</g>
<g fill="None" fill-opacity="0.0" stroke="#F7FDFC" stroke-opacity="0.21" stroke-width="0.3"><path d="
M 74.00 51.00 
C 75.16 49.58 77.58 47.32 79.00 46.00
C 77.11 47.49 75.43 48.95 74.00 51.00 Z"/>
</g>
<g fill="None" fill-opacity="0.0" stroke="#F7FDFC" stroke-opacity="0.27" stroke-width="0.3"><path d="
M 184.00 53.00 
C 182.17 50.39 179.67 47.87 177.00 46.00
C 178.98 47.63 182.33 50.96 184.00 53.00 Z"/>
</g>
<g fill="None" fill-opacity="0.0" stroke="#F7FDFC" stroke-opacity="0.27" stroke-width="0.3"><path d="
M 197.00 55.00 
C 198.87 53.27 201.16 51.63 203.00 50.00
C 201.84 50.75 198.99 52.67 197.00 55.00 Z"/>
</g>
<g fill="None" fill-opacity="0.0" stroke="#000000" stroke-opacity="1.00" stroke-width="0.3"><path d="
M 95.00 50.00 
C 89.07 51.58 81.13 59.75 83.00 66.00
C 87.56 61.46 93.15 56.11 95.00 50.00 Z"/>
</g>
<g fill="None" fill-opacity="0.0" stroke="#F7FDFC" stroke-opacity="0.20" stroke-width="0.3"><path d="
M 56.00 52.00 
C 57.55 53.38 59.34 54.55 61.00 56.00
C 59.34 54.06 56.91 52.59 56.00 52.00 Z"/>
</g>
<g fill="None" fill-opacity="0.0" stroke="#000000" stroke-opacity="1.00" stroke-width="0.3"><path d="
M 167.00 52.00 
C 163.24 52.43 166.20 59.20 169.08 59.92 C 171.96 60.65 169.06 70.23 173.91 68.92 C 178.77 67.60 170.68 51.57 167.00 52.00 Z"/>
</g>
<g fill="None" fill-opacity="0.0" stroke="#000000" stroke-opacity="1.00" stroke-width="0.3"><path d="
M 103.00 55.00 
C 98.02 54.10 89.84 66.25 96.00 68.00
C 97.71 63.33 102.34 59.91 103.00 55.00 Z"/>
</g>
<g fill="None" fill-opacity="0.0" stroke="#000000" stroke-opacity="0.01" stroke-width="0.3"><path d="
M 0.00 57.00 
L 0.00 256.00
L 256.00 256.00
L 256.00 58.00
C 248.74 66.52 236.42 72.88 229.00 64.00
C 224.63 68.51 220.37 70.94 216.00 76.00
C 214.39 77.87 213.04 79.62 211.00 81.00
C 209.21 82.21 207.17 83.85 205.00 86.00
C 203.80 87.50 202.03 89.00 202.00 91.00
C 212.00 91.00 222.00 91.00 232.00 91.00
C 234.78 91.71 236.82 94.85 237.00 97.00
C 237.01 97.02 237.68 98.74 237.00 101.00
C 236.35 104.22 234.90 105.03 232.00 106.00
C 224.26 108.60 207.64 102.94 201.00 108.00
C 196.67 113.14 199.63 122.35 195.13 128.08 C 190.63 133.81 188.83 140.62 182.00 147.00
C 180.64 148.92 176.72 152.71 175.00 154.00
C 172.57 154.51 173.02 158.61 170.00 158.00
C 170.37 159.56 172.15 159.98 173.00 161.00
C 174.67 162.67 176.48 164.23 178.00 166.00
C 180.44 168.42 183.39 171.39 186.00 174.00
C 186.95 174.61 189.47 175.74 191.00 178.00
C 193.21 180.73 203.49 194.75 208.30 190.30 C 213.10 185.85 224.63 188.72 229.20 192.75 C 233.77 196.78 234.28 203.00 232.06 209.92 C 229.84 216.83 222.97 222.62 217.00 221.00
C 217.93 227.97 214.52 233.35 207.08 237.08 C 199.64 240.81 190.26 238.21 185.80 232.25 C 181.34 226.29 183.52 218.08 186.00 211.00
C 183.20 208.99 180.75 206.19 178.00 204.00
C 176.84 203.25 174.54 202.12 173.00 204.00
C 172.89 213.90 165.56 220.61 157.00 231.00
C 148.41 233.58 143.29 235.33 133.00 237.00
C 129.54 237.56 126.41 237.59 123.00 237.00
C 103.95 236.82 80.81 219.70 83.00 200.00
C 79.84 202.87 75.19 205.55 72.00 209.00
C 71.77 209.32 69.95 214.10 70.00 215.00
C 76.18 223.06 70.23 235.95 58.67 238.33 C 47.11 240.71 36.02 230.99 39.00 221.00
C 31.75 222.71 29.75 216.66 24.00 215.00
C 22.39 207.86 19.88 200.29 25.00 195.00
C 25.94 193.35 27.26 191.81 29.00 191.00
C 36.54 184.97 44.86 187.15 51.00 192.00
C 55.93 184.21 65.09 179.07 70.75 173.75 C 76.41 168.43 89.92 158.80 80.75 152.25 C 71.58 145.69 70.42 140.29 65.00 133.00
C 63.34 130.77 63.50 129.41 63.00 128.00
C 57.78 122.34 58.34 114.56 56.00 107.00
C 44.33 105.87 29.49 109.73 21.00 104.00
C 22.78 100.80 18.91 100.54 20.00 97.00
C 23.01 92.64 26.46 91.65 33.00 92.00
C 37.24 91.82 43.04 91.00 48.00 91.00
C 50.52 91.00 54.30 90.22 56.00 92.00
C 59.31 90.01 49.34 83.94 48.00 83.00
C 45.94 81.56 44.57 79.81 43.00 78.00
C 40.87 75.89 38.29 73.29 36.00 71.00
C 34.82 70.23 31.97 67.97 30.00 66.00
C 28.46 65.55 28.88 63.24 27.00 63.00
C 24.67 67.65 14.81 68.11 10.30 66.71 C 5.80 65.31 3.61 56.91 0.00 57.00 Z"/>
</g>
<g fill="None" fill-opacity="0.0" stroke="#000000" stroke-opacity="1.00" stroke-width="0.3"><path d="
M 157.00 57.00 
C 152.75 56.60 154.79 66.56 158.30 67.64 C 161.81 68.73 159.51 58.82 157.00 57.00 Z"/>
</g>
<g fill="None" fill-opacity="0.0" stroke="#000000" stroke-opacity="1.00" stroke-width="0.3"><path d="
M 111.00 58.00 
C 107.45 57.12 102.25 65.82 108.00 66.00
C 108.92 63.21 111.92 61.35 111.00 58.00 Z"/>
</g>
<g fill="None" fill-opacity="0.0" stroke="#F4000F" stroke-opacity="0.35" stroke-width="0.3"><path d="
M 36.00 71.00 
C 33.97 68.97 32.38 67.66 30.00 66.00
C 31.97 67.97 34.82 70.23 36.00 71.00 Z"/>
</g>
<g fill="None" fill-opacity="0.0" stroke="#F4000F" stroke-opacity="1.00" stroke-width="0.3"><path d="
M 197.00 90.00 
C 196.02 80.69 193.52 72.60 183.00 74.00 C 172.48 75.40 163.22 73.36 153.00 74.00 C 142.78 74.64 133.06 73.70 123.00 74.00 C 112.94 74.30 102.94 73.84 93.00 74.00 C 83.06 74.16 73.87 73.88 64.00 74.00
C 62.88 79.75 60.72 85.16 60.00 91.00
C 105.58 90.33 151.83 92.33 197.00 90.00 Z"/>
</g>
<g fill="None" fill-opacity="0.0" stroke="#F4000F" stroke-opacity="0.38" stroke-width="0.3"><path d="
M 211.00 81.00 
C 213.04 79.62 214.39 77.87 216.00 76.00
C 214.09 77.55 212.62 79.32 211.00 81.00 Z"/>
</g>
<g fill="None" fill-opacity="0.0" stroke="#F7FDFC" stroke-opacity="0.22" stroke-width="0.3"><path d="
M 48.00 83.00 
C 46.50 81.77 44.47 79.45 43.00 78.00
C 44.57 79.81 45.94 81.56 48.00 83.00 Z"/>
</g>
<g fill="None" fill-opacity="0.0" stroke="#F7FDFC" stroke-opacity="0.20" stroke-width="0.3"><path d="
M 232.00 91.00 
C 222.00 91.00 212.00 91.00 202.00 91.00
C 202.03 89.00 203.80 87.50 205.00 86.00
C 197.59 93.34 205.67 90.85 212.00 92.00 C 218.33 93.15 226.67 90.13 232.00 91.00 Z"/>
</g>
<g fill="None" fill-opacity="0.0" stroke="#F4000F" stroke-opacity="0.29" stroke-width="0.3"><path d="
M 33.00 92.00 
C 37.97 92.27 43.03 92.00 48.00 92.00
C 47.96 92.00 48.00 91.00 48.00 91.00
C 43.04 91.00 37.24 91.82 33.00 92.00 Z"/>
</g>
<g fill="None" fill-opacity="0.0" stroke="#F7FDFC" stroke-opacity="0.24" stroke-width="0.3"><path d="
M 48.00 92.00 
C 49.76 92.00 54.54 92.88 56.00 92.00
C 54.30 90.22 50.52 91.00 48.00 91.00
C 48.00 91.00 47.96 92.00 48.00 92.00 Z"/>
</g>
<g fill="None" fill-opacity="0.0" stroke="#F4CB19" stroke-opacity="1.00" stroke-width="0.3"><path d="
M 232.00 95.00 
C 227.36 91.72 216.89 96.49 211.00 95.00 C 205.11 93.51 196.39 95.70 190.00 95.00 C 183.61 94.30 176.65 95.29 170.00 95.00 C 163.35 94.71 155.75 95.11 149.00 95.00 C 142.25 94.89 135.79 94.99 129.00 95.00 C 122.21 95.01 114.80 94.89 108.00 95.00 C 101.20 95.11 94.77 94.68 88.00 95.00 C 81.23 95.32 73.70 94.30 67.00 95.00 C 60.30 95.70 52.43 93.46 46.00 95.00 C 39.57 96.54 32.28 91.00 26.77 95.77 C 21.26 100.54 31.22 104.80 37.00 103.00 C 42.78 101.20 50.61 103.77 57.00 103.00 C 63.39 102.23 71.36 103.36 78.00 103.00 C 84.64 102.64 91.23 103.14 98.00 103.00 C 104.77 102.86 112.16 103.03 119.00 103.00 C 125.84 102.97 133.21 102.95 140.00 103.00 C 146.79 103.05 153.29 102.82 160.00 103.00 C 166.71 103.18 174.45 102.60 181.00 103.00 C 187.55 103.40 194.83 102.05 201.00 103.00 C 207.17 103.95 216.59 100.98 222.00 103.00 C 227.41 105.02 238.70 99.74 232.00 95.00 Z"/>
</g>
<g fill="None" fill-opacity="0.0" stroke="#F7FDFC" stroke-opacity="0.11" stroke-width="0.3"><path d="
M 237.00 97.00 
C 237.10 98.16 237.23 99.86 237.00 101.00
C 237.68 98.74 237.01 97.02 237.00 97.00 Z"/>
</g>
<g fill="None" fill-opacity="0.0" stroke="#F7FDFC" stroke-opacity="0.05" stroke-width="0.3"><path d="
M 201.00 108.00 
C 207.64 102.94 224.26 108.60 232.00 106.00
C 223.95 107.49 205.86 102.22 201.00 108.00 Z"/>
</g>
<g fill="None" fill-opacity="0.0" stroke="#F7FDFC" stroke-opacity="1.00" stroke-width="0.3"><path d="
M 197.00 107.00 
C 151.67 107.00 106.33 107.00 61.00 107.00
C 63.95 142.06 95.05 165.44 129.00 165.00 C 162.95 164.56 192.00 141.23 197.00 107.00
M 106.00 111.00 
C 128.77 116.30 120.18 153.43 97.33 147.67 C 74.48 141.91 81.74 105.36 106.00 111.00
M 160.00 111.00 
C 182.75 115.71 175.21 152.59 151.98 147.02 C 128.75 141.45 136.33 106.10 160.00 111.00
M 131.00 147.00 
C 138.86 148.89 135.49 160.58 127.00 158.00 C 118.51 155.42 122.78 145.02 131.00 147.00 Z"/>
</g>
<g fill="None" fill-opacity="0.0" stroke="#000000" stroke-opacity="1.00" stroke-width="0.3"><path d="
M 106.00 111.00 
C 81.74 105.36 74.48 141.91 97.33 147.67 C 120.18 153.43 128.77 116.30 106.00 111.00 Z"/>
</g>
<g fill="None" fill-opacity="0.0" stroke="#000000" stroke-opacity="1.00" stroke-width="0.3"><path d="
M 160.00 111.00 
C 136.33 106.10 128.75 141.45 151.98 147.02 C 175.21 152.59 182.75 115.71 160.00 111.00 Z"/>
</g>
<g fill="None" fill-opacity="0.0" stroke="#F7FDFC" stroke-opacity="0.30" stroke-width="0.3"><path d="
M 65.00 133.00 
C 64.12 131.34 63.87 129.66 63.00 128.00
C 63.50 129.41 63.34 130.77 65.00 133.00 Z"/>
</g>
<g fill="None" fill-opacity="0.0" stroke="#000000" stroke-opacity="1.00" stroke-width="0.3"><path d="
M 131.00 147.00 
C 122.78 145.02 118.51 155.42 127.00 158.00 C 135.49 160.58 138.86 148.89 131.00 147.00 Z"/>
</g>
<g fill="None" fill-opacity="0.0" stroke="#000000" stroke-opacity="0.39" stroke-width="0.3"><path d="
M 175.00 154.00 
C 176.72 152.71 180.64 148.92 182.00 147.00
C 179.62 149.22 177.22 151.51 175.00 154.00 Z"/>
</g>
<g fill="None" fill-opacity="0.0" stroke="#F7FDFC" stroke-opacity="0.15" stroke-width="0.3"><path d="
M 178.00 166.00 
C 176.48 164.23 174.67 162.67 173.00 161.00
C 174.52 162.81 176.31 164.32 178.00 166.00 Z"/>
</g>
<g fill="None" fill-opacity="0.0" stroke="#F7FDFC" stroke-opacity="1.00" stroke-width="0.3"><path d="
M 107.00 167.00 
C 100.80 164.69 91.30 158.88 89.78 167.78 C 88.26 176.68 99.07 176.37 105.00 179.00
C 104.87 174.80 105.62 170.79 107.00 167.00 Z"/>
</g>
<g fill="None" fill-opacity="0.0" stroke="#F7FDFC" stroke-opacity="1.00" stroke-width="0.3"><path d="
M 163.00 162.00 
C 158.01 163.81 153.20 165.98 148.00 167.00
C 148.32 171.45 150.29 175.42 150.00 180.00
C 156.20 179.60 161.26 175.71 167.00 174.00
C 166.53 169.73 164.90 165.82 163.00 162.00 Z"/>
</g>
<g fill="None" fill-opacity="0.0" stroke="#F7FDFC" stroke-opacity="1.00" stroke-width="0.3"><path d="
M 87.00 163.00 
C 73.96 173.68 62.31 187.04 49.00 197.00
C 43.73 188.77 31.16 189.68 26.93 198.93 C 22.70 208.17 32.03 220.55 43.00 217.00
C 38.63 227.07 49.09 238.03 59.30 234.30 C 69.52 230.58 69.85 218.52 64.00 211.00
C 68.45 204.19 80.27 201.93 82.00 193.00 C 83.73 184.07 81.48 171.16 87.00 163.00 Z"/>
</g>
<g fill="None" fill-opacity="0.0" stroke="#F7FDFC" stroke-opacity="1.00" stroke-width="0.3"><path d="
M 206.00 197.00 
C 192.48 187.09 181.42 172.78 168.00 163.00
C 170.29 170.85 173.67 177.52 174.00 186.00 C 174.33 194.48 174.98 199.62 183.75 204.25 C 192.53 208.88 188.68 214.61 187.01 221.99 C 185.34 229.37 194.87 236.41 201.99 234.99 C 209.12 233.57 215.24 226.20 213.00 218.00
C 223.26 219.89 232.45 209.47 228.92 200.08 C 225.39 190.70 211.71 188.90 206.00 197.00 Z"/>
</g>
<g fill="None" fill-opacity="0.0" stroke="#F7FDFC" stroke-opacity="1.00" stroke-width="0.3"><path d="
M 127.00 170.00 
C 121.39 169.04 115.69 168.56 110.00 168.00
C 109.49 172.40 108.22 176.56 108.00 181.00
C 114.35 181.74 120.25 183.90 127.00 183.00
C 127.00 178.67 127.00 174.33 127.00 170.00 Z"/>
</g>
<g fill="None" fill-opacity="0.0" stroke="#F7FDFC" stroke-opacity="1.00" stroke-width="0.3"><path d="
M 145.00 168.00 
C 140.11 169.16 134.86 168.84 130.00 170.00
C 130.00 174.33 130.00 178.67 130.00 183.00
C 135.86 183.14 141.73 183.12 147.00 181.00
C 145.62 176.87 145.39 172.39 145.00 168.00 Z"/>
</g>
<g fill="None" fill-opacity="0.0" stroke="#F4000F" stroke-opacity="0.34" stroke-width="0.3"><path d="
M 186.00 174.00 
C 187.40 175.40 189.84 176.88 191.00 178.00
C 189.47 175.74 186.95 174.61 186.00 174.00 Z"/>
</g>
<g fill="None" fill-opacity="0.0" stroke="#F7FDFC" stroke-opacity="1.00" stroke-width="0.3"><path d="
M 104.00 183.00 
C 97.89 181.83 92.87 177.35 87.00 176.00
C 82.04 187.19 93.40 191.87 102.00 195.00
C 102.92 191.05 102.81 186.85 104.00 183.00 Z"/>
</g>
<g fill="None" fill-opacity="0.0" stroke="#F7FDFC" stroke-opacity="1.00" stroke-width="0.3"><path d="
M 168.00 177.00 
C 159.09 181.10 145.49 183.18 153.00 196.00
C 161.78 193.47 175.19 188.33 168.00 177.00 Z"/>
</g>
<g fill="None" fill-opacity="0.0" stroke="#F7FDFC" stroke-opacity="1.00" stroke-width="0.3"><path d="
M 127.00 187.00 
C 120.38 187.12 114.02 186.12 108.00 184.00
C 106.65 188.15 106.01 192.51 106.00 197.00
C 112.47 199.19 119.40 199.40 126.00 201.00
C 128.08 196.80 126.52 191.63 127.00 187.00 Z"/>
</g>
<g fill="None" fill-opacity="0.0" stroke="#F7FDFC" stroke-opacity="1.00" stroke-width="0.3"><path d="
M 149.00 198.00 
C 147.39 194.78 150.11 185.12 145.02 185.02 C 139.94 184.93 135.27 187.75 130.00 187.00
C 130.00 191.33 130.00 195.67 130.00 200.00
C 136.71 200.83 142.66 198.54 149.00 198.00 Z"/>
</g>
<g fill="None" fill-opacity="0.0" stroke="#000000" stroke-opacity="0.42" stroke-width="0.3"><path d="
M 25.00 195.00 
C 26.00 193.97 27.86 191.89 29.00 191.00
C 27.26 191.81 25.94 193.35 25.00 195.00 Z"/>
</g>
<g fill="None" fill-opacity="0.0" stroke="#F7FDFC" stroke-opacity="1.00" stroke-width="0.3"><path d="
M 171.00 193.00 
C 144.84 207.57 109.98 208.25 85.00 191.00
C 83.55 215.77 103.24 233.59 127.00 234.00 C 150.76 234.41 172.08 218.40 171.00 193.00 Z"/>
</g>
<g fill="None" fill-opacity="0.0" stroke="#F7FDFC" stroke-opacity="0.30" stroke-width="0.3"><path d="
M 173.00 204.00 
C 174.54 202.12 176.84 203.25 178.00 204.00
C 176.76 202.79 174.96 201.11 173.00 201.00
C 172.69 201.86 173.38 203.18 173.00 204.00 Z"/>
</g>
<g fill="None" fill-opacity="0.0" stroke="#F7FDFC" stroke-opacity="0.29" stroke-width="0.3"><path d="
M 70.00 215.00 
C 69.95 214.10 71.77 209.32 72.00 209.00
C 69.42 211.79 69.26 211.16 70.00 215.00 Z"/>
</g>
<g fill="None" fill-opacity="0.0" stroke="#F7FDFC" stroke-opacity="0.07" stroke-width="0.3"><path d="
M 133.00 237.00 
C 129.72 237.14 126.28 237.18 123.00 237.00
C 126.41 237.59 129.54 237.56 133.00 237.00 Z"/>
</g>
<g fill="#000000" fill-opacity="0.01" stroke="None">
<path d="
M 0.00 47.00 
C 2.79 40.98 8.34 33.39 17.00 34.00
C 16.46 30.63 18.14 28.00 17.00 25.00
C 24.11 17.58 35.63 13.49 44.25 20.75 C 52.86 28.02 50.41 34.76 47.00 44.00
C 50.45 46.05 52.58 50.00 56.00 52.00
C 56.91 52.59 59.34 54.06 61.00 56.00
C 62.63 57.90 64.19 60.97 67.00 61.00
C 67.26 56.94 72.96 55.76 74.00 51.00
C 75.43 48.95 77.11 47.49 79.00 46.00
C 110.41 21.20 147.43 25.30 177.00 46.00
C 179.67 47.87 182.17 50.39 184.00 53.00
C 186.12 56.02 188.49 58.61 190.00 62.00
C 192.62 60.11 195.24 57.65 197.00 55.00
C 198.99 52.67 201.84 50.75 203.00 50.00
C 205.25 48.00 207.65 45.79 210.00 44.00
C 207.31 41.59 207.92 37.43 206.00 35.00
C 205.96 34.88 205.42 33.26 206.00 31.00
C 209.36 13.33 240.32 12.89 239.00 34.00
C 246.18 35.07 252.46 39.36 256.00 44.00
L 256.00 0.00
L 0.00 0.00
L 0.00 47.00 Z"/>
</g>
<g fill="#000000" fill-opacity="0.96" stroke="None">
<path d="
M 0.00 47.00 
L 0.00 57.00
C 3.61 56.91 5.80 65.31 10.30 66.71 C 14.81 68.11 24.67 67.65 27.00 63.00
C 28.88 63.24 28.46 65.55 30.00 66.00
C 32.38 67.66 33.97 68.97 36.00 71.00
C 38.29 73.29 40.87 75.89 43.00 78.00
C 44.47 79.45 46.50 81.77 48.00 83.00
C 49.34 83.94 59.31 90.01 56.00 92.00
C 54.54 92.88 49.76 92.00 48.00 92.00
C 43.03 92.00 37.97 92.27 33.00 92.00
C 26.46 91.65 23.01 92.64 20.00 97.00
C 18.91 100.54 22.78 100.80 21.00 104.00
C 29.49 109.73 44.33 105.87 56.00 107.00
C 58.34 114.56 57.78 122.34 63.00 128.00
C 63.87 129.66 64.12 131.34 65.00 133.00
C 70.42 140.29 71.58 145.69 80.75 152.25 C 89.92 158.80 76.41 168.43 70.75 173.75 C 65.09 179.07 55.93 184.21 51.00 192.00
C 44.86 187.15 36.54 184.97 29.00 191.00
C 27.86 191.89 26.00 193.97 25.00 195.00
C 19.88 200.29 22.39 207.86 24.00 215.00
C 29.75 216.66 31.75 222.71 39.00 221.00
C 36.02 230.99 47.11 240.71 58.67 238.33 C 70.23 235.95 76.18 223.06 70.00 215.00
C 69.26 211.16 69.42 211.79 72.00 209.00
C 75.19 205.55 79.84 202.87 83.00 200.00
C 80.81 219.70 103.95 236.82 123.00 237.00
C 126.28 237.18 129.72 237.14 133.00 237.00
C 143.29 235.33 148.41 233.58 157.00 231.00
C 165.56 220.61 172.89 213.90 173.00 204.00
C 173.38 203.18 172.69 201.86 173.00 201.00
C 174.96 201.11 176.76 202.79 178.00 204.00
C 180.75 206.19 183.20 208.99 186.00 211.00
C 183.52 218.08 181.34 226.29 185.80 232.25 C 190.26 238.21 199.64 240.81 207.08 237.08 C 214.52 233.35 217.93 227.97 217.00 221.00
C 222.97 222.62 229.84 216.83 232.06 209.92 C 234.28 203.00 233.77 196.78 229.20 192.75 C 224.63 188.72 213.10 185.85 208.30 190.30 C 203.49 194.75 193.21 180.73 191.00 178.00
C 189.84 176.88 187.40 175.40 186.00 174.00
C 183.39 171.39 180.44 168.42 178.00 166.00
C 176.31 164.32 174.52 162.81 173.00 161.00
C 172.15 159.98 170.37 159.56 170.00 158.00
C 173.02 158.61 172.57 154.51 175.00 154.00
C 177.22 151.51 179.62 149.22 182.00 147.00
C 188.83 140.62 190.63 133.81 195.13 128.08 C 199.63 122.35 196.67 113.14 201.00 108.00
C 205.86 102.22 223.95 107.49 232.00 106.00
C 234.90 105.03 236.35 104.22 237.00 101.00
C 237.23 99.86 237.10 98.16 237.00 97.00
C 236.82 94.85 234.78 91.71 232.00 91.00
C 226.67 90.13 218.33 93.15 212.00 92.00 C 205.67 90.85 197.59 93.34 205.00 86.00
C 207.17 83.85 209.21 82.21 211.00 81.00
C 212.62 79.32 214.09 77.55 216.00 76.00
C 220.37 70.94 224.63 68.51 229.00 64.00
C 236.42 72.88 248.74 66.52 256.00 58.00
L 256.00 44.00
C 252.46 39.36 246.18 35.07 239.00 34.00
C 240.32 12.89 209.36 13.33 206.00 31.00
C 205.80 32.08 205.83 33.92 206.00 35.00
C 207.92 37.43 207.31 41.59 210.00 44.00
C 207.65 45.79 205.25 48.00 203.00 50.00
C 201.16 51.63 198.87 53.27 197.00 55.00
C 195.24 57.65 192.62 60.11 190.00 62.00
C 188.49 58.61 186.12 56.02 184.00 53.00
C 182.33 50.96 178.98 47.63 177.00 46.00
C 147.43 25.30 110.41 21.20 79.00 46.00
C 77.58 47.32 75.16 49.58 74.00 51.00
C 72.96 55.76 67.26 56.94 67.00 61.00
C 64.19 60.97 62.63 57.90 61.00 56.00
C 59.34 54.55 57.55 53.38 56.00 52.00
C 52.58 50.00 50.45 46.05 47.00 44.00
C 50.41 34.76 52.86 28.02 44.25 20.75 C 35.63 13.49 24.11 17.58 17.00 25.00
C 18.14 28.00 16.46 30.63 17.00 34.00
C 8.34 33.39 2.79 40.98 0.00 47.00
M 42.00 45.00 
C 50.20 49.61 55.84 59.04 64.00 64.00
C 61.67 70.97 57.65 77.46 57.00 85.00
C 46.84 76.76 37.12 67.29 28.00 58.00
C 21.38 65.84 8.94 64.70 5.03 54.97 C 1.11 45.25 10.72 34.19 21.00 38.00
C 17.47 27.87 26.37 17.26 37.22 20.78 C 48.08 24.30 47.63 37.19 42.00 45.00
M 235.00 38.00 
C 245.22 35.36 254.98 46.02 251.67 55.67 C 248.36 65.32 234.38 66.94 229.00 59.00
C 219.02 66.42 210.63 76.13 201.00 84.00
C 197.90 79.35 197.71 72.51 194.23 67.77 C 190.75 63.03 200.18 58.68 202.25 55.25 C 204.32 51.81 215.18 48.12 213.64 43.30 C 212.10 38.48 207.52 31.47 212.26 26.26 C 216.99 21.04 222.99 19.03 229.07 21.93 C 235.16 24.82 237.28 32.52 235.00 38.00
M 190.00 70.00 
C 149.00 70.00 108.00 70.00 67.00 70.00
C 88.14 19.20 168.70 19.89 190.00 70.00
M 197.00 90.00 
C 151.83 92.33 105.58 90.33 60.00 91.00
C 60.72 85.16 62.88 79.75 64.00 74.00
C 73.87 73.88 83.06 74.16 93.00 74.00 C 102.94 73.84 112.94 74.30 123.00 74.00 C 133.06 73.70 142.78 74.64 153.00 74.00 C 163.22 73.36 172.48 75.40 183.00 74.00 C 193.52 72.60 196.02 80.69 197.00 90.00
M 232.00 95.00 
C 238.70 99.74 227.41 105.02 222.00 103.00 C 216.59 100.98 207.17 103.95 201.00 103.00 C 194.83 102.05 187.55 103.40 181.00 103.00 C 174.45 102.60 166.71 103.18 160.00 103.00 C 153.29 102.82 146.79 103.05 140.00 103.00 C 133.21 102.95 125.84 102.97 119.00 103.00 C 112.16 103.03 104.77 102.86 98.00 103.00 C 91.23 103.14 84.64 102.64 78.00 103.00 C 71.36 103.36 63.39 102.23 57.00 103.00 C 50.61 103.77 42.78 101.20 37.00 103.00 C 31.22 104.80 21.26 100.54 26.77 95.77 C 32.28 91.00 39.57 96.54 46.00 95.00 C 52.43 93.46 60.30 95.70 67.00 95.00 C 73.70 94.30 81.23 95.32 88.00 95.00 C 94.77 94.68 101.20 95.11 108.00 95.00 C 114.80 94.89 122.21 95.01 129.00 95.00 C 135.79 94.99 142.25 94.89 149.00 95.00 C 155.75 95.11 163.35 94.71 170.00 95.00 C 176.65 95.29 183.61 94.30 190.00 95.00 C 196.39 95.70 205.11 93.51 211.00 95.00 C 216.89 96.49 227.36 91.72 232.00 95.00
M 197.00 107.00 
C 192.00 141.23 162.95 164.56 129.00 165.00 C 95.05 165.44 63.95 142.06 61.00 107.00
C 106.33 107.00 151.67 107.00 197.00 107.00
M 107.00 167.00 
C 105.62 170.79 104.87 174.80 105.00 179.00
C 99.07 176.37 88.26 176.68 89.78 167.78 C 91.30 158.88 100.80 164.69 107.00 167.00
M 163.00 162.00 
C 164.90 165.82 166.53 169.73 167.00 174.00
C 161.26 175.71 156.20 179.60 150.00 180.00
C 150.29 175.42 148.32 171.45 148.00 167.00
C 153.20 165.98 158.01 163.81 163.00 162.00
M 87.00 163.00 
C 81.48 171.16 83.73 184.07 82.00 193.00 C 80.27 201.93 68.45 204.19 64.00 211.00
C 69.85 218.52 69.52 230.58 59.30 234.30 C 49.09 238.03 38.63 227.07 43.00 217.00
C 32.03 220.55 22.70 208.17 26.93 198.93 C 31.16 189.68 43.73 188.77 49.00 197.00
C 62.31 187.04 73.96 173.68 87.00 163.00
M 206.00 197.00 
C 211.71 188.90 225.39 190.70 228.92 200.08 C 232.45 209.47 223.26 219.89 213.00 218.00
C 215.24 226.20 209.12 233.57 201.99 234.99 C 194.87 236.41 185.34 229.37 187.01 221.99 C 188.68 214.61 192.53 208.88 183.75 204.25 C 174.98 199.62 174.33 194.48 174.00 186.00 C 173.67 177.52 170.29 170.85 168.00 163.00
C 181.42 172.78 192.48 187.09 206.00 197.00
M 127.00 170.00 
C 127.00 174.33 127.00 178.67 127.00 183.00
C 120.25 183.90 114.35 181.74 108.00 181.00
C 108.22 176.56 109.49 172.40 110.00 168.00
C 115.69 168.56 121.39 169.04 127.00 170.00
M 145.00 168.00 
C 145.39 172.39 145.62 176.87 147.00 181.00
C 141.73 183.12 135.86 183.14 130.00 183.00
C 130.00 178.67 130.00 174.33 130.00 170.00
C 134.86 168.84 140.11 169.16 145.00 168.00
M 104.00 183.00 
C 102.81 186.85 102.92 191.05 102.00 195.00
C 93.40 191.87 82.04 187.19 87.00 176.00
C 92.87 177.35 97.89 181.83 104.00 183.00
M 168.00 177.00 
C 175.19 188.33 161.78 193.47 153.00 196.00
C 145.49 183.18 159.09 181.10 168.00 177.00
M 127.00 187.00 
C 126.52 191.63 128.08 196.80 126.00 201.00
C 119.40 199.40 112.47 199.19 106.00 197.00
C 106.01 192.51 106.65 188.15 108.00 184.00
C 114.02 186.12 120.38 187.12 127.00 187.00
M 149.00 198.00 
C 142.66 198.54 136.71 200.83 130.00 200.00
C 130.00 195.67 130.00 191.33 130.00 187.00
C 135.27 187.75 139.94 184.93 145.02 185.02 C 150.11 185.12 147.39 194.78 149.00 198.00
M 171.00 193.00 
C 172.08 218.40 150.76 234.41 127.00 234.00 C 103.24 233.59 83.55 215.77 85.00 191.00
C 109.98 208.25 144.84 207.57 171.00 193.00 Z"/>
</g>
<g fill="#F7FDFC" fill-opacity="1.00" stroke="None">
<path d="
M 42.00 45.00 
C 47.63 37.19 48.08 24.30 37.22 20.78 C 26.37 17.26 17.47 27.87 21.00 38.00
C 10.72 34.19 1.11 45.25 5.03 54.97 C 8.94 64.70 21.38 65.84 28.00 58.00
C 37.12 67.29 46.84 76.76 57.00 85.00
C 57.65 77.46 61.67 70.97 64.00 64.00
C 55.84 59.04 50.20 49.61 42.00 45.00 Z"/>
</g>
<g fill="#F7FDFC" fill-opacity="1.00" stroke="None">
<path d="
M 235.00 38.00 
C 237.28 32.52 235.16 24.82 229.07 21.93 C 222.99 19.03 216.99 21.04 212.26 26.26 C 207.52 31.47 212.10 38.48 213.64 43.30 C 215.18 48.12 204.32 51.81 202.25 55.25 C 200.18 58.68 190.75 63.03 194.23 67.77 C 197.71 72.51 197.90 79.35 201.00 84.00
C 210.63 76.13 219.02 66.42 229.00 59.00
C 234.38 66.94 248.36 65.32 251.67 55.67 C 254.98 46.02 245.22 35.36 235.00 38.00 Z"/>
</g>
<g fill="#F7FDFC" fill-opacity="0.05" stroke="None">
<path d="
M 206.00 35.00 
C 205.83 33.92 205.80 32.08 206.00 31.00
C 205.42 33.26 205.96 34.88 206.00 35.00 Z"/>
</g>
<g fill="#F4CB19" fill-opacity="1.00" stroke="None">
<path d="
M 190.00 70.00 
C 168.70 19.89 88.14 19.20 67.00 70.00
C 108.00 70.00 149.00 70.00 190.00 70.00
M 95.00 50.00 
C 93.15 56.11 87.56 61.46 83.00 66.00
C 81.13 59.75 89.07 51.58 95.00 50.00
M 167.00 52.00 
C 170.68 51.57 178.77 67.60 173.91 68.92 C 169.06 70.23 171.96 60.65 169.08 59.92 C 166.20 59.20 163.24 52.43 167.00 52.00
M 103.00 55.00 
C 102.34 59.91 97.71 63.33 96.00 68.00
C 89.84 66.25 98.02 54.10 103.00 55.00
M 157.00 57.00 
C 159.51 58.82 161.81 68.73 158.30 67.64 C 154.79 66.56 152.75 56.60 157.00 57.00
M 111.00 58.00 
C 111.92 61.35 108.92 63.21 108.00 66.00
C 102.25 65.82 107.45 57.12 111.00 58.00 Z"/>
</g>
<g fill="#F7FDFC" fill-opacity="0.21" stroke="None">
<path d="
M 74.00 51.00 
C 75.16 49.58 77.58 47.32 79.00 46.00
C 77.11 47.49 75.43 48.95 74.00 51.00 Z"/>
</g>
<g fill="#F7FDFC" fill-opacity="0.27" stroke="None">
<path d="
M 184.00 53.00 
C 182.17 50.39 179.67 47.87 177.00 46.00
C 178.98 47.63 182.33 50.96 184.00 53.00 Z"/>
</g>
<g fill="#F7FDFC" fill-opacity="0.27" stroke="None">
<path d="
M 197.00 55.00 
C 198.87 53.27 201.16 51.63 203.00 50.00
C 201.84 50.75 198.99 52.67 197.00 55.00 Z"/>
</g>
<g fill="#000000" fill-opacity="1.00" stroke="None">
<path d="
M 95.00 50.00 
C 89.07 51.58 81.13 59.75 83.00 66.00
C 87.56 61.46 93.15 56.11 95.00 50.00 Z"/>
</g>
<g fill="#F7FDFC" fill-opacity="0.20" stroke="None">
<path d="
M 56.00 52.00 
C 57.55 53.38 59.34 54.55 61.00 56.00
C 59.34 54.06 56.91 52.59 56.00 52.00 Z"/>
</g>
<g fill="#000000" fill-opacity="1.00" stroke="None">
<path d="
M 167.00 52.00 
C 163.24 52.43 166.20 59.20 169.08 59.92 C 171.96 60.65 169.06 70.23 173.91 68.92 C 178.77 67.60 170.68 51.57 167.00 52.00 Z"/>
</g>
<g fill="#000000" fill-opacity="1.00" stroke="None">
<path d="
M 103.00 55.00 
C 98.02 54.10 89.84 66.25 96.00 68.00
C 97.71 63.33 102.34 59.91 103.00 55.00 Z"/>
</g>
<g fill="#000000" fill-opacity="0.01" stroke="None">
<path d="
M 0.00 57.00 
L 0.00 256.00
L 256.00 256.00
L 256.00 58.00
C 248.74 66.52 236.42 72.88 229.00 64.00
C 224.63 68.51 220.37 70.94 216.00 76.00
C 214.39 77.87 213.04 79.62 211.00 81.00
C 209.21 82.21 207.17 83.85 205.00 86.00
C 203.80 87.50 202.03 89.00 202.00 91.00
C 212.00 91.00 222.00 91.00 232.00 91.00
C 234.78 91.71 236.82 94.85 237.00 97.00
C 237.01 97.02 237.68 98.74 237.00 101.00
C 236.35 104.22 234.90 105.03 232.00 106.00
C 224.26 108.60 207.64 102.94 201.00 108.00
C 196.67 113.14 199.63 122.35 195.13 128.08 C 190.63 133.81 188.83 140.62 182.00 147.00
C 180.64 148.92 176.72 152.71 175.00 154.00
C 172.57 154.51 173.02 158.61 170.00 158.00
C 170.37 159.56 172.15 159.98 173.00 161.00
C 174.67 162.67 176.48 164.23 178.00 166.00
C 180.44 168.42 183.39 171.39 186.00 174.00
C 186.95 174.61 189.47 175.74 191.00 178.00
C 193.21 180.73 203.49 194.75 208.30 190.30 C 213.10 185.85 224.63 188.72 229.20 192.75 C 233.77 196.78 234.28 203.00 232.06 209.92 C 229.84 216.83 222.97 222.62 217.00 221.00
C 217.93 227.97 214.52 233.35 207.08 237.08 C 199.64 240.81 190.26 238.21 185.80 232.25 C 181.34 226.29 183.52 218.08 186.00 211.00
C 183.20 208.99 180.75 206.19 178.00 204.00
C 176.84 203.25 174.54 202.12 173.00 204.00
C 172.89 213.90 165.56 220.61 157.00 231.00
C 148.41 233.58 143.29 235.33 133.00 237.00
C 129.54 237.56 126.41 237.59 123.00 237.00
C 103.95 236.82 80.81 219.70 83.00 200.00
C 79.84 202.87 75.19 205.55 72.00 209.00
C 71.77 209.32 69.95 214.10 70.00 215.00
C 76.18 223.06 70.23 235.95 58.67 238.33 C 47.11 240.71 36.02 230.99 39.00 221.00
C 31.75 222.71 29.75 216.66 24.00 215.00
C 22.39 207.86 19.88 200.29 25.00 195.00
C 25.94 193.35 27.26 191.81 29.00 191.00
C 36.54 184.97 44.86 187.15 51.00 192.00
C 55.93 184.21 65.09 179.07 70.75 173.75 C 76.41 168.43 89.92 158.80 80.75 152.25 C 71.58 145.69 70.42 140.29 65.00 133.00
C 63.34 130.77 63.50 129.41 63.00 128.00
C 57.78 122.34 58.34 114.56 56.00 107.00
C 44.33 105.87 29.49 109.73 21.00 104.00
C 22.78 100.80 18.91 100.54 20.00 97.00
C 23.01 92.64 26.46 91.65 33.00 92.00
C 37.24 91.82 43.04 91.00 48.00 91.00
C 50.52 91.00 54.30 90.22 56.00 92.00
C 59.31 90.01 49.34 83.94 48.00 83.00
C 45.94 81.56 44.57 79.81 43.00 78.00
C 40.87 75.89 38.29 73.29 36.00 71.00
C 34.82 70.23 31.97 67.97 30.00 66.00
C 28.46 65.55 28.88 63.24 27.00 63.00
C 24.67 67.65 14.81 68.11 10.30 66.71 C 5.80 65.31 3.61 56.91 0.00 57.00 Z"/>
</g>
<g fill="#000000" fill-opacity="1.00" stroke="None">
<path d="
M 157.00 57.00 
C 152.75 56.60 154.79 66.56 158.30 67.64 C 161.81 68.73 159.51 58.82 157.00 57.00 Z"/>
</g>
<g fill="#000000" fill-opacity="1.00" stroke="None">
<path d="
M 111.00 58.00 
C 107.45 57.12 102.25 65.82 108.00 66.00
C 108.92 63.21 111.92 61.35 111.00 58.00 Z"/>
</g>
<g fill="#F4000F" fill-opacity="0.35" stroke="None">
<path d="
M 36.00 71.00 
C 33.97 68.97 32.38 67.66 30.00 66.00
C 31.97 67.97 34.82 70.23 36.00 71.00 Z"/>
</g>
<g fill="#F4000F" fill-opacity="1.00" stroke="None">
<path d="
M 197.00 90.00 
C 196.02 80.69 193.52 72.60 183.00 74.00 C 172.48 75.40 163.22 73.36 153.00 74.00 C 142.78 74.64 133.06 73.70 123.00 74.00 C 112.94 74.30 102.94 73.84 93.00 74.00 C 83.06 74.16 73.87 73.88 64.00 74.00
C 62.88 79.75 60.72 85.16 60.00 91.00
C 105.58 90.33 151.83 92.33 197.00 90.00 Z"/>
</g>
<g fill="#F4000F" fill-opacity="0.38" stroke="None">
<path d="
M 211.00 81.00 
C 213.04 79.62 214.39 77.87 216.00 76.00
C 214.09 77.55 212.62 79.32 211.00 81.00 Z"/>
</g>
<g fill="#F7FDFC" fill-opacity="0.22" stroke="None">
<path d="
M 48.00 83.00 
C 46.50 81.77 44.47 79.45 43.00 78.00
C 44.57 79.81 45.94 81.56 48.00 83.00 Z"/>
</g>
<g fill="#F7FDFC" fill-opacity="0.20" stroke="None">
<path d="
M 232.00 91.00 
C 222.00 91.00 212.00 91.00 202.00 91.00
C 202.03 89.00 203.80 87.50 205.00 86.00
C 197.59 93.34 205.67 90.85 212.00 92.00 C 218.33 93.15 226.67 90.13 232.00 91.00 Z"/>
</g>
<g fill="#F4000F" fill-opacity="0.29" stroke="None">
<path d="
M 33.00 92.00 
C 37.97 92.27 43.03 92.00 48.00 92.00
C 47.96 92.00 48.00 91.00 48.00 91.00
C 43.04 91.00 37.24 91.82 33.00 92.00 Z"/>
</g>
<g fill="#F7FDFC" fill-opacity="0.24" stroke="None">
<path d="
M 48.00 92.00 
C 49.76 92.00 54.54 92.88 56.00 92.00
C 54.30 90.22 50.52 91.00 48.00 91.00
C 48.00 91.00 47.96 92.00 48.00 92.00 Z"/>
</g>
<g fill="#F4CB19" fill-opacity="1.00" stroke="None">
<path d="
M 232.00 95.00 
C 227.36 91.72 216.89 96.49 211.00 95.00 C 205.11 93.51 196.39 95.70 190.00 95.00 C 183.61 94.30 176.65 95.29 170.00 95.00 C 163.35 94.71 155.75 95.11 149.00 95.00 C 142.25 94.89 135.79 94.99 129.00 95.00 C 122.21 95.01 114.80 94.89 108.00 95.00 C 101.20 95.11 94.77 94.68 88.00 95.00 C 81.23 95.32 73.70 94.30 67.00 95.00 C 60.30 95.70 52.43 93.46 46.00 95.00 C 39.57 96.54 32.28 91.00 26.77 95.77 C 21.26 100.54 31.22 104.80 37.00 103.00 C 42.78 101.20 50.61 103.77 57.00 103.00 C 63.39 102.23 71.36 103.36 78.00 103.00 C 84.64 102.64 91.23 103.14 98.00 103.00 C 104.77 102.86 112.16 103.03 119.00 103.00 C 125.84 102.97 133.21 102.95 140.00 103.00 C 146.79 103.05 153.29 102.82 160.00 103.00 C 166.71 103.18 174.45 102.60 181.00 103.00 C 187.55 103.40 194.83 102.05 201.00 103.00 C 207.17 103.95 216.59 100.98 222.00 103.00 C 227.41 105.02 238.70 99.74 232.00 95.00 Z"/>
</g>
<g fill="#F7FDFC" fill-opacity="0.11" stroke="None">
<path d="
M 237.00 97.00 
C 237.10 98.16 237.23 99.86 237.00 101.00
C 237.68 98.74 237.01 97.02 237.00 97.00 Z"/>
</g>
<g fill="#F7FDFC" fill-opacity="0.05" stroke="None">
<path d="
M 201.00 108.00 
C 207.64 102.94 224.26 108.60 232.00 106.00
C 223.95 107.49 205.86 102.22 201.00 108.00 Z"/>
</g>
<g fill="#F7FDFC" fill-opacity="1.00" stroke="None">
<path d="
M 197.00 107.00 
C 151.67 107.00 106.33 107.00 61.00 107.00
C 63.95 142.06 95.05 165.44 129.00 165.00 C 162.95 164.56 192.00 141.23 197.00 107.00
M 106.00 111.00 
C 128.77 116.30 120.18 153.43 97.33 147.67 C 74.48 141.91 81.74 105.36 106.00 111.00
M 160.00 111.00 
C 182.75 115.71 175.21 152.59 151.98 147.02 C 128.75 141.45 136.33 106.10 160.00 111.00
M 131.00 147.00 
C 138.86 148.89 135.49 160.58 127.00 158.00 C 118.51 155.42 122.78 145.02 131.00 147.00 Z"/>
</g>
<g fill="#000000" fill-opacity="1.00" stroke="None">
<path d="
M 106.00 111.00 
C 81.74 105.36 74.48 141.91 97.33 147.67 C 120.18 153.43 128.77 116.30 106.00 111.00 Z"/>
</g>
<g fill="#000000" fill-opacity="1.00" stroke="None">
<path d="
M 160.00 111.00 
C 136.33 106.10 128.75 141.45 151.98 147.02 C 175.21 152.59 182.75 115.71 160.00 111.00 Z"/>
</g>
<g fill="#F7FDFC" fill-opacity="0.30" stroke="None">
<path d="
M 65.00 133.00 
C 64.12 131.34 63.87 129.66 63.00 128.00
C 63.50 129.41 63.34 130.77 65.00 133.00 Z"/>
</g>
<g fill="#000000" fill-opacity="1.00" stroke="None">
<path d="
M 131.00 147.00 
C 122.78 145.02 118.51 155.42 127.00 158.00 C 135.49 160.58 138.86 148.89 131.00 147.00 Z"/>
</g>
<g fill="#000000" fill-opacity="0.39" stroke="None">
<path d="
M 175.00 154.00 
C 176.72 152.71 180.64 148.92 182.00 147.00
C 179.62 149.22 177.22 151.51 175.00 154.00 Z"/>
</g>
<g fill="#F7FDFC" fill-opacity="0.15" stroke="None">
<path d="
M 178.00 166.00 
C 176.48 164.23 174.67 162.67 173.00 161.00
C 174.52 162.81 176.31 164.32 178.00 166.00 Z"/>
</g>
<g fill="#F7FDFC" fill-opacity="1.00" stroke="None">
<path d="
M 107.00 167.00 
C 100.80 164.69 91.30 158.88 89.78 167.78 C 88.26 176.68 99.07 176.37 105.00 179.00
C 104.87 174.80 105.62 170.79 107.00 167.00 Z"/>
</g>
<g fill="#F7FDFC" fill-opacity="1.00" stroke="None">
<path d="
M 163.00 162.00 
C 158.01 163.81 153.20 165.98 148.00 167.00
C 148.32 171.45 150.29 175.42 150.00 180.00
C 156.20 179.60 161.26 175.71 167.00 174.00
C 166.53 169.73 164.90 165.82 163.00 162.00 Z"/>
</g>
<g fill="#F7FDFC" fill-opacity="1.00" stroke="None">
<path d="
M 87.00 163.00 
C 73.96 173.68 62.31 187.04 49.00 197.00
C 43.73 188.77 31.16 189.68 26.93 198.93 C 22.70 208.17 32.03 220.55 43.00 217.00
C 38.63 227.07 49.09 238.03 59.30 234.30 C 69.52 230.58 69.85 218.52 64.00 211.00
C 68.45 204.19 80.27 201.93 82.00 193.00 C 83.73 184.07 81.48 171.16 87.00 163.00 Z"/>
</g>
<g fill="#F7FDFC" fill-opacity="1.00" stroke="None">
<path d="
M 206.00 197.00 
C 192.48 187.09 181.42 172.78 168.00 163.00
C 170.29 170.85 173.67 177.52 174.00 186.00 C 174.33 194.48 174.98 199.62 183.75 204.25 C 192.53 208.88 188.68 214.61 187.01 221.99 C 185.34 229.37 194.87 236.41 201.99 234.99 C 209.12 233.57 215.24 226.20 213.00 218.00
C 223.26 219.89 232.45 209.47 228.92 200.08 C 225.39 190.70 211.71 188.90 206.00 197.00 Z"/>
</g>
<g fill="#F7FDFC" fill-opacity="1.00" stroke="None">
<path d="
M 127.00 170.00 
C 121.39 169.04 115.69 168.56 110.00 168.00
C 109.49 172.40 108.22 176.56 108.00 181.00
C 114.35 181.74 120.25 183.90 127.00 183.00
C 127.00 178.67 127.00 174.33 127.00 170.00 Z"/>
</g>
<g fill="#F7FDFC" fill-opacity="1.00" stroke="None">
<path d="
M 145.00 168.00 
C 140.11 169.16 134.86 168.84 130.00 170.00
C 130.00 174.33 130.00 178.67 130.00 183.00
C 135.86 183.14 141.73 183.12 147.00 181.00
C 145.62 176.87 145.39 172.39 145.00 168.00 Z"/>
</g>
<g fill="#F4000F" fill-opacity="0.34" stroke="None">
<path d="
M 186.00 174.00 
C 187.40 175.40 189.84 176.88 191.00 178.00
C 189.47 175.74 186.95 174.61 186.00 174.00 Z"/>
</g>
<g fill="#F7FDFC" fill-opacity="1.00" stroke="None">
<path d="
M 104.00 183.00 
C 97.89 181.83 92.87 177.35 87.00 176.00
C 82.04 187.19 93.40 191.87 102.00 195.00
C 102.92 191.05 102.81 186.85 104.00 183.00 Z"/>
</g>
<g fill="#F7FDFC" fill-opacity="1.00" stroke="None">
<path d="
M 168.00 177.00 
C 159.09 181.10 145.49 183.18 153.00 196.00
C 161.78 193.47 175.19 188.33 168.00 177.00 Z"/>
</g>
<g fill="#F7FDFC" fill-opacity="1.00" stroke="None">
<path d="
M 127.00 187.00 
C 120.38 187.12 114.02 186.12 108.00 184.00
C 106.65 188.15 106.01 192.51 106.00 197.00
C 112.47 199.19 119.40 199.40 126.00 201.00
C 128.08 196.80 126.52 191.63 127.00 187.00 Z"/>
</g>
<g fill="#F7FDFC" fill-opacity="1.00" stroke="None">
<path d="
M 149.00 198.00 
C 147.39 194.78 150.11 185.12 145.02 185.02 C 139.94 184.93 135.27 187.75 130.00 187.00
C 130.00 191.33 130.00 195.67 130.00 200.00
C 136.71 200.83 142.66 198.54 149.00 198.00 Z"/>
</g>
<g fill="#000000" fill-opacity="0.42" stroke="None">
<path d="
M 25.00 195.00 
C 26.00 193.97 27.86 191.89 29.00 191.00
C 27.26 191.81 25.94 193.35 25.00 195.00 Z"/>
</g>
<g fill="#F7FDFC" fill-opacity="1.00" stroke="None">
<path d="
M 171.00 193.00 
C 144.84 207.57 109.98 208.25 85.00 191.00
C 83.55 215.77 103.24 233.59 127.00 234.00 C 150.76 234.41 172.08 218.40 171.00 193.00 Z"/>
</g>
<g fill="#F7FDFC" fill-opacity="0.30" stroke="None">
<path d="
M 173.00 204.00 
C 174.54 202.12 176.84 203.25 178.00 204.00
C 176.76 202.79 174.96 201.11 173.00 201.00
C 172.69 201.86 173.38 203.18 173.00 204.00 Z"/>
</g>
<g fill="#F7FDFC" fill-opacity="0.29" stroke="None">
<path d="
M 70.00 215.00 
C 69.95 214.10 71.77 209.32 72.00 209.00
C 69.42 211.79 69.26 211.16 70.00 215.00 Z"/>
</g>
<g fill="#F7FDFC" fill-opacity="0.07" stroke="None">
<path d="
M 133.00 237.00 
C 129.72 237.14 126.28 237.18 123.00 237.00
C 126.41 237.59 129.54 237.56 133.00 237.00 Z"/>
</g>
</svg>